HIERARCHY
ROOT Hips
{
	OFFSET 0.00 0.00 0.00
	CHANNELS 6 Xposition Yposition Zposition Xrotation Yrotation Zrotation
	JOINT Spine
	{
		OFFSET 0.00000 7.50895 0.00000
		CHANNELS 3 Xrotation Yrotation Zrotation
		JOINT Head
		{
			OFFSET 0.00000 13.86115 0.00000
			CHANNELS 3 Xrotation Yrotation Zrotation
			End Site
			{
				OFFSET 0.00000 4.52755 0.00000
			}
		}
		JOINT LeftShoulder
		{
			OFFSET 0.00000 8.20478 0.00000
			CHANNELS 3 Xrotation Yrotation Zrotation
			JOINT LeftArm
			{
				OFFSET 6.63596 0.00000 0.00000
				CHANNELS 3 Xrotation Yrotation Zrotation
				JOINT LeftForeArm
				{
					OFFSET 10.27422 0.00000 0.00000
					CHANNELS 3 Yrotation Zrotation Xrotation
					JOINT LeftHand
					{
						OFFSET 8.52215 0.00000 0.00000
						CHANNELS 3 Xrotation Yrotation Zrotation
						JOINT LeftHandThumb1
						{
							OFFSET 0.00000 0.00000 0.00000
							CHANNELS 3 Xrotation Zrotation Yrotation
							End Site
							{
								OFFSET 0.00000 0.00000 3.93700
							}
						}
						End Site
						{
							OFFSET 3.93700 0.00000 0.00000
						}
					}
				}
			}
		}
		JOINT RightShoulder
		{
			OFFSET 0.00000 8.20478 0.00000
			CHANNELS 3 Xrotation Yrotation Zrotation
			JOINT RightArm
			{
				OFFSET -6.63596 0.00000 0.00000
				CHANNELS 3 Xrotation Yrotation Zrotation
				JOINT RightForeArm
				{
					OFFSET -10.27422 0.00000 0.00000
					CHANNELS 3 Yrotation Zrotation Xrotation
					JOINT RightHand
					{
						OFFSET -8.52215 0.00000 0.00000
						CHANNELS 3 Xrotation Yrotation Zrotation
						JOINT RightHandThumb1
						{
							OFFSET 0.00000 0.00000 0.00000
							CHANNELS 3 Xrotation Zrotation Yrotation
							End Site
							{
								OFFSET 0.00000 0.00000 3.93700
							}
						}
						End Site
						{
							OFFSET -3.93700 0.00000 0.00000
						}
					}
				}
			}
		}
	}
	JOINT LeftUpLeg
	{
		OFFSET 3.00056 0.00000 0.00000
		CHANNELS 3 Xrotation Yrotation Zrotation
		JOINT LeftLeg
		{
			OFFSET 0.00000 -16.49085 0.00000
			CHANNELS 3 Xrotation Yrotation Zrotation
			JOINT LeftFoot
			{
				OFFSET 0.00000 -14.55658 0.00000
				CHANNELS 3 Xrotation Yrotation Zrotation
				JOINT LeftToeBase
				{
					OFFSET 0.00000 -1.25038 4.66650
					CHANNELS 3 Xrotation Yrotation Zrotation
					End Site
					{
						OFFSET 0.00000 0.00000 2.95275
					}
				}
			}
		}
	}
	JOINT RightUpLeg
	{
		OFFSET -3.00056 0.00000 0.00000
		CHANNELS 3 Xrotation Yrotation Zrotation
		JOINT RightLeg
		{
			OFFSET 0.00000 -16.49085 0.00000
			CHANNELS 3 Xrotation Yrotation Zrotation
			JOINT RightFoot
			{
				OFFSET 0.00000 -14.55658 0.00000
				CHANNELS 3 Xrotation Yrotation Zrotation
				JOINT RightToeBase
				{
					OFFSET 0.00000 -1.25038 4.66650
					CHANNELS 3 Xrotation Yrotation Zrotation
					End Site
					{
						OFFSET 0.00000 0.00000 2.95275
					}
				}
			}
		}
	}
}
MOTION
Frames: 21
Frame Time: 0.008333
 0.5547 32.7661 1.1592 10.8820 3.2403 -1.1053 -13.2716 3.3396 0.2139 -11.0153 -9.6437 9.6968 9.7737 18.4656 28.5021 -30.4939 -8.0807 -21.6391 -14.8620 -0.0000 10.6512 4.3311 21.7688 -11.5421 33.1476 -0.0000 26.2537 -21.1657 -8.9901 -37.7487 -4.5009 -3.8691 24.5680 13.3484 -0.0000 29.5208 2.3535 -7.7815 16.8857 32.8623 0.0000 -24.3270 -7.4013 6.4939 5.4987 0.2889 0.0000 0.0000 -9.1933 7.0386 -10.1340 10.6197 -0.0000 -0.0000 -6.8736 -9.0526 -4.2553 2.3875 -0.0000 0.0000 -8.2183 -8.6613 0.8428 0.4227 0.0000 0.0000
 0.5550 32.7664 1.1579 10.8829 3.2482 -1.1035 -13.2609 3.3585 0.1991 -10.9902 -9.7065 9.6512 9.7788 18.4691 28.5148 -30.5220 -8.0976 -21.6466 -14.8912 -0.0000 10.6256 4.3275 21.7893 -11.5226 33.1476 -0.0000 26.2537 -21.1593 -8.9996 -37.7245 -4.4883 -3.8770 24.5591 13.3895 -0.0000 29.4988 2.3709 -7.8404 16.8834 32.8623 0.0000 -24.3270 -7.4030 6.4799 5.4935 0.2992 -0.0000 -0.0000 -9.2766 7.0417 -9.9544 10.8887 0.0000 -0.0000 -6.8766 -9.0611 -4.2586 2.3877 -0.0000 0.0000 -8.2159 -8.6626 0.8299 0.4267 0.0000 -0.0000
 0.5557 32.7664 1.1558 10.8862 3.2657 -1.1012 -13.2466 3.3454 0.1899 -10.9891 -9.6972 9.6556 9.7818 18.4856 28.5233 -30.5304 -8.1055 -21.6678 -14.9122 -0.0000 10.7001 4.2764 21.7845 -11.3919 33.1476 -0.0000 26.2537 -21.1710 -8.9900 -37.7265 -4.4588 -3.8571 24.5899 13.3934 -0.0000 29.5496 2.3704 -7.8764 16.8079 32.8623 0.0000 -24.3270 -7.4111 6.4710 5.4867 0.2970 0.0000 -0.0000 -9.2729 7.0366 -9.9360 10.8712 -0.0000 0.0000 -6.8853 -9.0741 -4.2651 2.3926 0.0000 0.0000 -8.2084 -8.6701 0.8336 0.3617 -0.0000 0.0000
 0.5561 32.7668 1.1541 10.8870 3.2742 -1.1024 -13.2318 3.3508 0.1939 -10.9886 -9.6928 9.6304 9.7923 18.4846 28.5040 -30.5559 -8.1151 -21.6551 -14.9260 -0.0000 10.6840 4.2690 21.7743 -11.3776 33.1476 -0.0000 26.2537 -21.1767 -8.9837 -37.6788 -4.4880 -3.8717 24.5285 13.3706 -0.0000 29.5126 2.3270 -7.7086 16.8544 32.8623 0.0000 -24.3270 -7.4107 6.4649 5.4851 0.2849 0.0000 -0.0000 -9.2595 7.0278 -9.9090 10.9082 -0.0000 0.0000 -6.8870 -9.0777 -4.2665 2.3935 -0.0000 0.0000 -8.2199 -8.6662 0.8476 0.4276 0.0000 0.0000
 0.5566 32.7663 1.1524 10.8971 3.2903 -1.1052 -13.2222 3.3299 0.1856 -10.9952 -9.6760 9.6562 9.7800 18.5091 28.5121 -30.5756 -8.1252 -21.6644 -14.9468 -0.0000 10.6511 4.2750 21.8104 -11.3759 33.1476 -0.0000 26.2537 -21.1762 -8.9786 -37.6949 -4.4851 -3.8542 24.5715 13.3703 -0.0000 29.4990 2.3623 -7.8911 16.7245 32.8623 0.0000 -24.3270 -7.4299 6.4745 5.4846 0.2908 -0.0000 0.0000 -9.2624 7.0099 -9.9341 10.8863 0.0000 -0.0000 -6.8935 -9.0782 -4.2655 2.3841 -0.0000 0.0000 -8.2103 -8.6857 0.8296 0.4105 0.0000 0.0000
 0.5560 32.7662 1.1506 10.9065 3.3017 -1.1153 -13.2174 3.3429 0.1925 -10.9945 -9.6830 9.6504 9.7729 18.4878 28.5144 -30.5932 -8.1188 -21.6613 -14.9544 -0.0000 10.6864 4.2677 21.7551 -11.3837 33.1476 -0.0000 26.2537 -21.1785 -8.9800 -37.6861 -4.5237 -3.9159 24.5607 13.4318 -0.0000 29.5940 2.3715 -7.9044 16.7599 32.8623 0.0000 -24.3270 -7.4445 6.4719 5.4970 0.2791 -0.0000 -0.0000 -9.1928 7.0005 -10.1244 10.6783 0.0000 0.0000 -6.9056 -9.0830 -4.2563 2.3916 -0.0000 -0.0000 -8.2178 -8.6976 0.8377 0.4368 -0.0000 -0.0000
 0.5561 32.7661 1.1493 10.9091 3.3113 -1.1184 -13.2000 3.3267 0.1918 -11.0032 -9.6418 9.6614 9.7971 18.5138 28.4969 -30.6383 -8.1109 -21.6558 -14.9809 -0.0000 10.6414 4.2657 21.8023 -11.3555 33.1476 -0.0000 26.2537 -21.1795 -8.9653 -37.6804 -4.5468 -3.9390 24.5708 13.4442 -0.0000 29.6532 2.3874 -7.9332 16.8083 32.8623 0.0000 -24.3270 -7.4792 6.5585 5.4987 0.3256 0.0000 0.0000 -9.2712 6.8945 -9.9444 10.8549 -0.0000 0.0000 -6.9085 -9.0864 -4.2567 2.3923 0.0000 -0.0000 -8.2218 -8.6924 0.8298 0.4457 -0.0000 -0.0000
 0.5560 32.7661 1.1469 10.9194 3.3205 -1.1220 -13.1908 3.3369 0.1904 -11.0104 -9.6502 9.6705 9.8131 18.5188 28.4918 -30.6862 -8.1157 -21.6607 -14.9836 -0.0000 10.6356 4.2649 21.8155 -11.3471 33.1476 -0.0000 26.2537 -21.1944 -8.9672 -37.6816 -4.5422 -3.9432 24.5740 13.4147 -0.0000 29.6933 2.3694 -7.8086 16.9382 32.8623 0.0000 -24.3270 -7.5035 6.5703 5.5002 0.3478 0.0000 0.0000 -9.2601 6.8046 -9.8211 10.6726 0.0000 -0.0000 -6.9253 -9.0825 -4.2540 2.4022 -0.0000 0.0000 -8.2226 -8.7050 0.8299 0.4178 -0.0000 0.0000
 0.5572 32.7661 1.1442 10.9366 3.3407 -1.1144 -13.1863 3.3201 0.1808 -11.0267 -9.6331 9.6633 9.8215 18.5430 28.4855 -30.7553 -8.0977 -21.6773 -14.9903 -0.0000 10.6061 4.2564 21.7546 -11.3543 33.1476 -0.0000 26.2537 -21.1988 -8.9595 -37.6994 -4.5567 -3.9723 24.6054 13.4436 -0.0000 29.6936 2.3922 -7.8607 16.9853 32.8623 0.0000 -24.3270 -7.4915 6.4663 5.4837 0.2936 -0.0000 -0.0000 -9.2263 6.8905 -9.8262 10.7103 0.0000 0.0000 -6.9497 -9.0965 -4.2697 2.4098 -0.0000 -0.0000 -8.2340 -8.7049 0.8380 0.4581 0.0000 -0.0000
 0.5575 32.7664 1.1429 10.9406 3.3504 -1.1174 -13.1722 3.3176 0.1736 -11.0263 -9.6305 9.6885 9.8155 18.5344 28.4836 -30.7302 -8.1055 -21.6644 -14.9981 -0.0000 10.5936 4.2462 21.8357 -11.2889 33.1476 -0.0000 26.2537 -21.1930 -8.9628 -37.6817 -4.5751 -3.9934 24.6062 13.4476 -0.0000 29.6988 2.3958 -7.8633 17.0048 32.8623 0.0000 -24.3270 -7.4975 6.4638 5.4843 0.2911 -0.0000 -0.0000 -9.2159 6.8780 -9.8447 10.7089 -0.0000 0.0000 -6.9565 -9.0960 -4.2689 2.4154 -0.0000 0.0000 -8.2276 -8.7202 0.8391 0.4341 0.0000 0.0000
 0.5573 32.7665 1.1404 10.9521 3.3625 -1.1172 -13.1629 3.3133 0.1652 -11.0301 -9.6336 9.6875 9.8045 18.5313 28.4931 -30.7656 -8.0755 -21.6773 -15.0245 -0.0000 10.5615 4.2700 21.8786 -11.3300 33.1476 -0.0000 26.2537 -21.2019 -8.9722 -37.6924 -4.4632 -3.8956 24.6393 13.3361 -0.0000 29.3979 2.3661 -7.8520 16.8282 32.8623 0.0000 -24.3270 -7.5195 6.4632 5.4849 0.2916 0.0000 -0.0000 -9.2359 6.9326 -9.9275 10.8470 -0.0000 -0.0000 -6.9742 -9.0986 -4.2718 2.4221 -0.0000 0.0000 -8.2319 -8.7271 0.8440 0.4239 0.0000 0.0000
 0.5581 32.7667 1.1388 10.9593 3.3830 -1.1176 -13.1506 3.2957 0.1619 -11.0327 -9.6442 9.6777 9.8205 18.5554 28.4797 -30.8080 -8.0907 -21.6886 -15.0071 -0.0000 10.5734 4.2607 21.8925 -11.2993 33.1476 -0.0000 26.2537 -21.1993 -8.9608 -37.6888 -4.4466 -3.9082 24.6480 13.3353 -0.0000 29.3785 2.3658 -7.8510 16.8279 32.8623 0.0000 -24.3270 -7.5344 6.4520 5.4806 0.2973 -0.0000 0.0000 -9.2341 6.9309 -9.9627 10.8523 0.0000 -0.0000 -6.9839 -9.1133 -4.2764 2.4264 -0.0000 -0.0000 -8.2372 -8.7280 0.8388 0.4649 -0.0000 0.0000
 0.5587 32.7669 1.1372 10.9615 3.3980 -1.1184 -13.1325 3.2837 0.1593 -11.0297 -9.6478 9.6721 9.7988 18.5392 28.4806 -30.7852 -8.0906 -21.6888 -14.9711 -0.0000 10.6430 4.2377 21.8461 -11.2618 33.1476 -0.0000 26.2537 -21.2032 -8.9648 -37.6686 -4.4668 -3.9151 24.6349 13.3477 -0.0000 29.4093 2.3743 -7.8539 16.8794 32.8623 0.0000 -24.3270 -7.5414 6.4580 5.4788 0.2959 0.0000 -0.0000 -9.2322 6.9008 -9.9640 10.8511 -0.0000 0.0000 -6.9852 -9.1143 -4.2779 2.4234 -0.0000 -0.0000 -8.2283 -8.7377 0.8322 0.4384 0.0000 0.0000
 0.5586 32.7672 1.1358 10.9653 3.4145 -1.1242 -13.1200 3.2736 0.1603 -11.0199 -9.6561 9.6651 9.7930 18.5298 28.4844 -30.7817 -8.0784 -21.6952 -14.9767 -0.0000 10.6427 4.2479 21.8519 -11.2853 33.1476 -0.0000 26.2537 -21.2032 -8.9633 -37.6740 -4.5283 -3.9624 24.6466 13.3771 -0.0000 29.6067 2.3969 -7.8475 17.0438 32.8623 0.0000 -24.3270 -7.5539 6.4476 5.4820 0.3042 0.0000 -0.0000 -9.2223 6.9165 -10.0096 10.8581 0.0000 -0.0000 -6.9897 -9.1304 -4.2744 2.4230 -0.0000 0.0000 -8.2196 -8.7449 0.8391 0.4359 -0.0000 0.0000
 0.5585 32.7674 1.1340 10.9785 3.4298 -1.1259 -13.1194 3.2701 0.1550 -11.0098 -9.6604 9.6595 9.7833 18.5193 28.4915 -30.7766 -8.0774 -21.7029 -14.9614 -0.0000 10.6734 4.2540 21.8194 -11.3169 33.1476 -0.0000 26.2537 -21.2034 -8.9611 -37.6902 -4.5120 -3.9987 24.6897 13.4390 -0.0000 29.5380 2.4224 -7.9894 16.9285 32.8623 0.0000 -24.3270 -7.5720 6.4387 5.4817 0.3000 0.0000 0.0000 -9.2212 6.8929 -9.9531 10.8586 -0.0000 -0.0000 -7.0057 -9.1410 -4.2750 2.4280 -0.0000 -0.0000 -8.2262 -8.7472 0.8287 0.4512 0.0000 0.0000
 0.5594 32.7676 1.1327 10.9829 3.4438 -1.1257 -13.1105 3.2632 0.1540 -10.9952 -9.6557 9.6547 9.7815 18.5281 28.4885 -30.8164 -8.0738 -21.7207 -14.9789 -0.0000 10.5541 4.2841 21.8741 -11.3688 33.1476 -0.0000 26.2537 -21.2054 -8.9542 -37.7147 -4.5643 -4.0554 24.7359 13.4551 -0.0000 29.5860 2.4087 -7.9911 16.8347 32.8623 0.0000 -24.3270 -7.5786 6.4262 5.4769 0.2994 0.0000 -0.0000 -9.2193 6.9009 -9.9519 10.8273 0.0000 -0.0000 -7.0046 -9.1358 -4.2771 2.4170 0.0000 0.0000 -8.2152 -8.7689 0.8301 0.4378 -0.0000 0.0000
 0.5597 32.7678 1.1321 10.9870 3.4508 -1.1242 -13.1039 3.2651 0.1545 -10.9731 -9.6617 9.6272 9.7830 18.5088 28.4744 -30.8065 -8.0570 -21.7062 -14.9850 -0.0000 10.5428 4.2952 21.8507 -11.4089 33.1476 -0.0000 26.2537 -21.2169 -8.9430 -37.6919 -4.5635 -4.0806 24.7117 13.4560 -0.0000 29.5643 2.3878 -7.8923 16.8928 32.8623 0.0000 -24.3270 -7.5847 6.4416 5.4736 0.2968 0.0000 -0.0000 -9.2160 6.8777 -9.9694 10.9295 -0.0000 0.0000 -7.0087 -9.1401 -4.2803 2.4162 0.0000 -0.0000 -8.2166 -8.7739 0.8362 0.4454 -0.0000 0.0000
 0.5599 32.7682 1.1313 10.9964 3.4596 -1.1213 -13.1069 3.2697 0.1454 -10.9342 -9.6686 9.6614 9.7810 18.4972 28.4760 -30.8312 -8.0466 -21.7150 -14.9663 -0.0000 10.5974 4.3026 21.7883 -11.4583 33.1476 -0.0000 26.2537 -21.2077 -8.9461 -37.6821 -4.5343 -4.1071 24.7251 13.5074 -0.0000 29.4571 2.3990 -8.0246 16.7049 32.8623 0.0000 -24.3270 -7.5962 6.4625 5.4682 0.2920 -0.0000 -0.0000 -9.1946 6.8473 -9.9881 10.8597 0.0000 -0.0000 -7.0110 -9.1315 -4.2847 2.4036 0.0000 0.0000 -8.2167 -8.7900 0.8333 0.4466 -0.0000 0.0000
 0.5605 32.7681 1.1305 11.0066 3.4754 -1.1217 -13.1078 3.2592 0.1385 -10.9187 -9.6611 9.6675 9.7586 18.4989 28.4882 -30.8054 -8.0571 -21.7277 -14.9724 -0.0000 10.5903 4.3227 21.7810 -11.5143 33.1476 -0.0000 26.2537 -21.2255 -8.9353 -37.6874 -4.5419 -4.1271 24.7380 13.5182 -0.0000 29.5864 2.4132 -8.0357 16.7767 32.8623 0.0000 -24.3270 -7.6049 6.4543 5.4650 0.2821 -0.0000 -0.0000 -9.1900 6.8440 -9.9793 10.8560 0.0000 0.0000 -7.0221 -9.1519 -4.2883 2.4031 -0.0000 0.0000 -8.2050 -8.7811 0.8242 0.4430 -0.0000 -0.0000
 0.5603 32.7683 1.1297 11.0162 3.4738 -1.1246 -13.1138 3.2645 0.1470 -10.8868 -9.6594 9.6463 9.7737 18.4943 28.4724 -30.8268 -8.0476 -21.7298 -14.9625 -0.0000 10.5924 4.3298 21.7436 -11.5510 33.1476 -0.0000 26.2537 -21.2234 -8.9333 -37.6765 -4.5262 -4.1260 24.7351 13.5248 -0.0000 29.4917 2.3859 -7.9476 16.7697 32.8623 0.0000 -24.3270 -7.6105 6.4509 5.4675 0.2727 0.0000 0.0000 -9.1842 6.8406 -9.9784 10.8575 -0.0000 0.0000 -7.0302 -9.1398 -4.2856 2.4007 0.0000 -0.0000 -8.2137 -8.7934 0.8437 0.4774 0.0000 -0.0000
 0.5605 32.7682 1.1289 11.0253 3.4814 -1.1293 -13.1150 3.2614 0.1475 -10.8684 -9.6586 9.6535 9.7834 18.5090 28.4659 -30.8022 -8.0834 -21.7398 -14.9219 -0.0000 10.6825 4.2713 21.6599 -11.4393 33.1476 -0.0000 26.2537 -21.2336 -8.9357 -37.6642 -4.5379 -4.1219 24.7153 13.4994 -0.0000 29.6700 2.3682 -7.7799 16.9883 32.8623 0.0000 -24.3270 -7.6196 6.4440 5.4689 0.2757 0.0000 0.0000 -9.1618 6.7656 -9.8618 10.6643 0.0000 -0.0000 -7.0305 -9.1529 -4.2813 2.3807 0.0000 0.0000 -8.2112 -8.7773 0.8405 0.5045 -0.0000 -0.0000
